User Type,Username,Date,Text
,sskain,2012-03-19T15:25Z,".cue



REM GENRE Punk Rock
REM DATE 1977
PERFORMER ""The Stranglers""
TITLE ""Rattus Norvegicus""
FILE ""The Stranglers - Rattus Norvegicus side one.flac"" WAVE
TRACK 01 AUDIO
TITLE ""Sometimes""
INDEX 01 00:00:00
TRACK 02 AUDIO
TITLE ""Goodbye Toulouse""
INDEX 01 04:54:52
TRACK 03 AUDIO
TITLE ""London Lady""
INDEX 01 08:10:52
TRACK 04 AUDIO
TITLE ""Princess of the Streets""
INDEX 01 10:43:31
TRACK 05 AUDIO
TITLE ""Hanging Around""
INDEX 01 15:19:32
FILE ""The Stranglers - Rattus Norvegicus side two.flac"" WAVE
TRACK 06 AUDIO
TITLE ""Peaches""
INDEX 01 00:00:00
TRACK 07 AUDIO
TITLE ""(Get A) Grip (On Yourself)""
INDEX 01 04:09:11
TRACK 08 AUDIO
TITLE ""Ugly""
INDEX 01 08:09:00
TRACK 09 AUDIO
TITLE ""Down In The Sewer""
INDEX 01 12:15:07"
